# xmcd
#
# Track frame offsets:
# 150
# 14984
# 38736
# 54267
# 72995
# 111642
# 126658
# 153174
# 178146
# 193469
# 210677
# 229786
# 249398
# 301384
# 325500
#
# Disc length: 4630 seconds
#
#
# Revision: 0
# Processed by: cddbd v1.5.2PL0 Copyright (c) Steve Scherf et al.
# Submitted via: FreeRIP 2.945 
#
DISCID=e012140f
DTITLE=B.B. King - Anthology - Disc 2
DYEAR=1900
DGENRE=Blues
TTITLE0=Ain't nobody home
TTITLE1=Ghetto woman
TTITLE2=I got some help I don't need
TTITLE3=Guess who
TTITLE4=To know you is to love you
TTITLE5=I like to live the love
TTITLE6=Let the good times roll
TTITLE7=Never make your move too soon
TTITLE8=Better not look down
TTITLE9=There must be a better world somewhere
TTITLE10=Into the night
TTITLE11=When love conmes to town
TTITLE12=Call it stormy monday
TTITLE13=Playing whit my friends
TTITLE14=I'll survive
EXTD=
EXTT0=
EXTT1=
EXTT2=
EXTT3=
EXTT4=
EXTT5=
EXTT6=
EXTT7=
EXTT8=
EXTT9=
EXTT10=
EXTT11=
EXTT12=
EXTT13=
EXTT14=
PLAYORDER=
